<svg width="33" height="27" viewBox="0 0 33 27" fill="none" xmlns="http://www.w3.org/2000/svg">
<path d="M32.2517 3.08333C31.0646 3.62292 29.785 3.9775 28.4592 4.14708C29.8158 3.33 30.8642 2.035 31.3575 0.477917C30.0779 1.24875 28.6596 1.78833 27.1642 2.09667C25.9462 0.770833 24.235 0 22.2925 0C18.6696 0 15.7096 2.96 15.7096 6.61375C15.7096 7.13792 15.7712 7.64667 15.8792 8.12458C10.3908 7.84708 5.50375 5.21083 2.25083 1.21792C1.68042 2.18917 1.35667 3.33 1.35667 4.5325C1.35667 6.82958 2.51292 8.86458 4.30125 10.0208C3.20667 10.0208 2.18917 9.7125 1.295 9.25V9.29625C1.295 12.5029 3.57667 15.1854 6.59833 15.7867C5.6282 16.0522 4.60973 16.0891 3.62292 15.8946C4.04164 17.2088 4.8617 18.3588 5.96782 19.1828C7.07393 20.0069 8.41048 20.4636 9.78958 20.4888C7.45185 22.3394 4.55408 23.3398 1.5725 23.3254C1.04833 23.3254 0.524167 23.2946 0 23.2329C2.92917 25.1137 6.41333 26.2083 10.1442 26.2083C22.2925 26.2083 28.9679 16.1258 28.9679 7.38458C28.9679 7.09167 28.9679 6.81417 28.9525 6.52125C30.2475 5.59625 31.3575 4.42458 32.2517 3.08333Z" fill="black"/>
</svg>
