<svg width="37" height="37" viewBox="0 0 37 37" fill="none" xmlns="http://www.w3.org/2000/svg">
<path d="M30.1334 27.6792C30.4592 28.005 30.6422 28.4469 30.6422 28.9077C30.6422 29.3685 30.4592 29.8104 30.1334 30.1362C29.8076 30.462 29.3656 30.6451 28.9049 30.6451C28.4441 30.6451 28.0022 30.462 27.6763 30.1362L18.5001 20.957L9.32088 30.1333C8.99506 30.4592 8.55315 30.6422 8.09236 30.6422C7.63158 30.6422 7.18967 30.4592 6.86385 30.1333C6.53803 29.8075 6.35498 29.3656 6.35498 28.9048C6.35498 28.444 6.53803 28.0021 6.86385 27.6763L16.043 18.5L6.86674 9.32083C6.54092 8.99501 6.35787 8.5531 6.35787 8.09231C6.35787 7.63153 6.54092 7.18962 6.86674 6.8638C7.19256 6.53798 7.63447 6.35493 8.09525 6.35493C8.55604 6.35493 8.99795 6.53798 9.32377 6.8638L18.5001 16.043L27.6792 6.86235C28.0051 6.53653 28.447 6.35349 28.9078 6.35349C29.3685 6.35349 29.8104 6.53653 30.1363 6.86235C30.4621 7.18818 30.6451 7.63009 30.6451 8.09087C30.6451 8.55165 30.4621 8.99356 30.1363 9.31938L20.9571 18.5L30.1334 27.6792Z" fill="black"/>
</svg>
