<svg width="45" height="45" viewBox="0 0 45 45" fill="none" xmlns="http://www.w3.org/2000/svg">
<path d="M36.6487 33.6639C37.0449 34.0601 37.2676 34.5976 37.2676 35.158C37.2676 35.7184 37.0449 36.2559 36.6487 36.6522C36.2524 37.0484 35.7149 37.271 35.1545 37.271C34.5941 37.271 34.0567 37.0484 33.6604 36.6522L22.5 25.4883L11.3362 36.6486C10.9399 37.0449 10.4024 37.2675 9.84204 37.2675C9.28163 37.2675 8.74417 37.0449 8.3479 36.6486C7.95163 36.2524 7.729 35.7149 7.729 35.1545C7.729 34.5941 7.95163 34.0566 8.3479 33.6604L19.5118 22.5L8.35141 11.3361C7.95514 10.9399 7.73252 10.4024 7.73252 9.842C7.73252 9.28158 7.95514 8.74413 8.35141 8.34785C8.74768 7.95158 9.28514 7.72896 9.84555 7.72896C10.406 7.72896 10.9434 7.95158 11.3397 8.34785L22.5 19.5117L33.6639 8.3461C34.0602 7.94983 34.5976 7.7272 35.1581 7.7272C35.7185 7.7272 36.2559 7.94983 36.6522 8.3461C37.0485 8.74237 37.2711 9.27983 37.2711 9.84024C37.2711 10.4006 37.0485 10.9381 36.6522 11.3344L25.4883 22.5L36.6487 33.6639Z" fill="black"/>
</svg>