<svg width="119" height="119" viewBox="0 0 119 119" fill="none" xmlns="http://www.w3.org/2000/svg">
<path d="M85.5937 48.3686H68.8131L83.9027 29.3027C84.215 28.899 83.9332 28.3125 83.4228 28.3125H54.2109C53.9976 28.3125 53.792 28.4268 53.6853 28.6172L33.9492 62.7041C33.7131 63.1078 34.0025 63.6182 34.4748 63.6182H47.7591L40.9494 90.8572C40.8047 91.4514 41.5207 91.8703 41.9625 91.4437L86.0127 49.4121C86.4088 49.0389 86.1422 48.3686 85.5937 48.3686ZM49.8082 76.7959L54.4013 58.4385H42.4119L56.8541 33.4998H73.9623L58.0957 53.5559H74.1679L49.8082 76.7959Z" fill="black"/>
<circle cx="59.5" cy="59.5" r="59" stroke="black" stroke-dasharray="20 20"/>
</svg>
