<svg width="16" height="29" viewBox="0 0 16 29" fill="none" xmlns="http://www.w3.org/2000/svg">
<path d="M11.2927 0C9.40166 0 7.58806 0.751216 6.25089 2.08839C4.91372 3.42556 4.1625 5.23916 4.1625 7.13021V11.1H0.346875C0.155708 11.1 0 11.2542 0 11.4469V16.6885C0 16.8797 0.154167 17.0354 0.346875 17.0354H4.1625V27.7885C4.1625 27.9797 4.31667 28.1354 4.50938 28.1354H9.75104C9.94221 28.1354 10.0979 27.9812 10.0979 27.7885V17.0354H13.9475C14.1062 17.0354 14.245 16.9275 14.2835 16.7733L15.594 11.5317C15.6069 11.4805 15.6079 11.4271 15.5971 11.3755C15.5862 11.3239 15.5637 11.2754 15.5313 11.2338C15.4989 11.1922 15.4574 11.1585 15.4101 11.1353C15.3627 11.1121 15.3106 11.1 15.2579 11.1H10.0979V7.13021C10.0979 6.97331 10.1288 6.81794 10.1889 6.67298C10.2489 6.52802 10.3369 6.39631 10.4479 6.28536C10.5588 6.17442 10.6905 6.08641 10.8355 6.02636C10.9804 5.96632 11.1358 5.93542 11.2927 5.93542H15.301C15.4922 5.93542 15.6479 5.78125 15.6479 5.58854V0.346875C15.6479 0.155708 15.4937 0 15.301 0H11.2927Z" fill="black"/>
</svg>
