<svg width="28" height="28" viewBox="0 0 28 28" fill="none" xmlns="http://www.w3.org/2000/svg">
<path d="M-7.07578e-08 1.61875C-5.05413e-08 1.15625 0.154165 0.770832 0.4625 0.462499C0.770832 0.154165 1.15625 -1.16245e-06 1.61875 -1.14223e-06L7.8625 -8.6931e-07C8.22222 -8.53586e-07 8.53724 0.115624 8.80754 0.346874C9.07785 0.578124 9.25103 0.87361 9.32708 1.23333L10.4062 6.55208C10.4576 6.9118 10.4253 7.27821 10.3091 7.65129C10.193 8.02437 10.0198 8.32603 9.78958 8.55625L6.16667 12.1792C7.34861 14.1319 8.74896 15.9177 10.3677 17.5365C11.9865 19.1552 13.7208 20.5042 15.5708 21.5833L19.3479 17.8833C19.5792 17.6521 19.8428 17.5041 20.1388 17.4393C20.4348 17.3746 20.7621 17.3684 21.1208 17.4208L26.5167 18.4229C26.8764 18.4743 27.1719 18.6413 27.4031 18.924C27.6344 19.2066 27.75 19.5278 27.75 19.8875L27.75 26.1313C27.75 26.5938 27.5958 26.9792 27.2875 27.2875C26.9792 27.5958 26.5937 27.75 26.1312 27.75C22.8167 27.75 19.5853 27.011 16.4372 25.5331C13.2892 24.0551 10.5013 22.1024 8.07371 19.6747C5.6461 17.2471 3.69332 14.4593 2.21538 11.3112C0.737432 8.16312 -0.00102637 4.9323 -7.07578e-08 1.61875Z" fill="black"/>
</svg>

