<svg width="119" height="119" viewBox="0 0 119 119" fill="none" xmlns="http://www.w3.org/2000/svg">
<g clip-path="url(#clip0_6_715)">
<path d="M39.6817 80.0703C39.4827 80.0693 39.2922 79.9893 39.1521 79.8479C33.6496 74.3442 30.5585 66.8804 30.5585 59.0979C30.5585 51.3155 33.6496 43.8516 39.1521 38.348C39.221 38.2738 39.3042 38.2143 39.3967 38.1731C39.4891 38.1318 39.589 38.1095 39.6902 38.1077C39.7915 38.1059 39.892 38.1245 39.9859 38.1624C40.0798 38.2004 40.1651 38.2569 40.2366 38.3285C40.3082 38.4001 40.3646 38.4855 40.4024 38.5794C40.4403 38.6733 40.4588 38.7739 40.4568 38.8752C40.4549 38.9764 40.4326 39.0762 40.3912 39.1686C40.3498 39.261 40.2902 39.3442 40.216 39.413C34.9944 44.6346 32.061 51.7165 32.061 59.1008C32.061 66.4852 34.9944 73.5671 40.216 78.7886C40.3216 78.8937 40.3936 79.0278 40.4229 79.174C40.4522 79.3201 40.4374 79.4716 40.3804 79.6093C40.3234 79.747 40.2268 79.8647 40.1028 79.9473C39.9788 80.03 39.833 80.074 39.684 80.0737L39.6817 80.0703Z" fill="#141F38"/>
<path d="M80.1223 80.0703C79.9733 80.0706 79.8275 80.0266 79.7036 79.9439C79.5796 79.8612 79.483 79.7436 79.426 79.6059C79.369 79.4682 79.3542 79.3167 79.3835 79.1706C79.4127 79.0244 79.4848 78.8903 79.5904 78.7852C84.8119 73.5637 87.7453 66.4818 87.7453 59.0974C87.7453 51.7131 84.8119 44.6311 79.5904 39.4096C79.511 39.3423 79.4464 39.2592 79.4007 39.1657C79.355 39.0721 79.3292 38.9701 79.3249 38.8661C79.3206 38.762 79.3379 38.6582 79.3758 38.5612C79.4137 38.4642 79.4712 38.3761 79.5449 38.3025C79.6185 38.2289 79.7066 38.1713 79.8036 38.1335C79.9006 38.0956 80.0044 38.0783 80.1084 38.0825C80.2124 38.0868 80.3144 38.1126 80.408 38.1583C80.5016 38.204 80.5846 38.2686 80.652 38.348C86.1544 43.8517 89.2456 51.3155 89.2456 59.098C89.2456 66.8805 86.1544 74.3443 80.652 79.8479C80.5119 79.9893 80.3214 80.0693 80.1223 80.0703Z" fill="#141F38"/>
<path d="M43.9418 75.8114C43.843 75.8116 43.7451 75.7922 43.6538 75.7544C43.5625 75.7167 43.4796 75.6612 43.4098 75.5913C41.2429 73.426 39.524 70.8549 38.3512 68.025C37.1784 65.1951 36.5747 62.1618 36.5747 59.0985C36.5747 56.0352 37.1784 53.0019 38.3512 50.172C39.524 47.3421 41.2429 44.771 43.4098 42.6058C43.4797 42.5359 43.5626 42.4805 43.6539 42.4427C43.7452 42.4049 43.843 42.3854 43.9418 42.3854C44.0406 42.3854 44.1384 42.4049 44.2296 42.4427C44.3209 42.4805 44.4038 42.5359 44.4737 42.6058C44.5436 42.6756 44.599 42.7586 44.6368 42.8498C44.6746 42.9411 44.694 43.0389 44.694 43.1377C44.694 43.2365 44.6746 43.3343 44.6368 43.4256C44.599 43.5169 44.5436 43.5998 44.4737 43.6696C42.4466 45.6952 40.8385 48.1004 39.7413 50.7478C38.6441 53.3952 38.0794 56.2328 38.0794 59.0985C38.0794 61.9642 38.6441 64.8019 39.7413 67.4492C40.8385 70.0966 42.4466 72.5018 44.4737 74.5274C44.5793 74.6325 44.6514 74.7667 44.6806 74.9128C44.7099 75.0589 44.6951 75.2104 44.6381 75.3481C44.5811 75.4858 44.4845 75.6035 44.3605 75.6862C44.2365 75.7688 44.0908 75.8128 43.9418 75.8125V75.8114Z" fill="#141F38"/>
<path d="M75.8623 75.8114C75.7133 75.8117 75.5675 75.7677 75.4435 75.685C75.3195 75.6023 75.2229 75.4847 75.1659 75.347C75.1089 75.2093 75.0941 75.0577 75.1234 74.9116C75.1527 74.7655 75.2247 74.6314 75.3303 74.5263C77.3575 72.5007 78.9656 70.0955 80.0627 67.4481C81.1599 64.8007 81.7246 61.9631 81.7246 59.0974C81.7246 56.2317 81.1599 53.394 80.0627 50.7467C78.9656 48.0993 77.3575 45.6941 75.3303 43.6685C75.1893 43.5274 75.11 43.3361 75.11 43.1365C75.11 42.937 75.1893 42.7457 75.3303 42.6046C75.4714 42.4635 75.6628 42.3843 75.8623 42.3843C76.0618 42.3843 76.2531 42.4635 76.3942 42.6046C78.5611 44.7699 80.2801 47.341 81.4529 50.1709C82.6257 53.0008 83.2293 56.0341 83.2293 59.0974C83.2293 62.1607 82.6257 65.194 81.4529 68.0239C80.2801 70.8538 78.5611 73.4248 76.3942 75.5901C76.3245 75.6603 76.2416 75.7159 76.1503 75.7539C76.0591 75.7919 75.9611 75.8114 75.8623 75.8114Z" fill="#141F38"/>
<path d="M48.1938 71.5594C48.095 71.5596 47.9971 71.5402 47.9058 71.5025C47.8146 71.4647 47.7316 71.4092 47.6618 71.3393C44.4172 68.0917 42.5947 63.6887 42.5947 59.098C42.5947 54.5073 44.4172 50.1043 47.6618 46.8567C47.8029 46.7156 47.9943 46.6364 48.1938 46.6364C48.3933 46.6364 48.5846 46.7156 48.7257 46.8567C48.8668 46.9978 48.946 47.1891 48.946 47.3886C48.946 47.5881 48.8668 47.7795 48.7257 47.9205C45.7645 50.8867 44.1013 54.9067 44.1013 59.098C44.1013 63.2893 45.7645 67.3093 48.7257 70.2755C48.8313 70.3806 48.9034 70.5147 48.9326 70.6608C48.9619 70.8069 48.9471 70.9585 48.8901 71.0961C48.8331 71.2338 48.7365 71.3515 48.6125 71.4342C48.4886 71.5169 48.3428 71.5609 48.1938 71.5606V71.5594Z" fill="#141F38"/>
<path d="M71.6103 71.5594C71.4612 71.5597 71.3155 71.5157 71.1915 71.433C71.0675 71.3503 70.9709 71.2327 70.9139 71.095C70.8569 70.9573 70.8421 70.8058 70.8714 70.6597C70.9007 70.5135 70.9727 70.3794 71.0783 70.2743C74.0396 67.3081 75.7028 63.2881 75.7028 59.0968C75.7028 54.9055 74.0396 50.8855 71.0783 47.9194C71.0085 47.8495 70.9531 47.7666 70.9153 47.6753C70.8775 47.5841 70.858 47.4862 70.858 47.3875C70.858 47.2887 70.8775 47.1908 70.9153 47.0996C70.9531 47.0083 71.0085 46.9254 71.0783 46.8555C71.1482 46.7857 71.2311 46.7303 71.3224 46.6925C71.4136 46.6547 71.5115 46.6352 71.6103 46.6352C71.709 46.6352 71.8069 46.6547 71.8981 46.6925C71.9894 46.7303 72.0723 46.7857 72.1422 46.8555C75.3868 50.1032 77.2094 54.5061 77.2094 59.0968C77.2094 63.6876 75.3868 68.0905 72.1422 71.3382C72.0725 71.4083 71.9896 71.4639 71.8983 71.5019C71.807 71.5399 71.7091 71.5594 71.6103 71.5594Z" fill="#141F38"/>
<path d="M59.902 64.3657C58.8602 64.3657 57.8417 64.0568 56.9754 63.478C56.1092 62.8991 55.434 62.0764 55.0353 61.1139C54.6366 60.1513 54.5323 59.0922 54.7355 58.0703C54.9388 57.0485 55.4405 56.1099 56.1772 55.3731C56.9139 54.6364 57.8525 54.1347 58.8743 53.9315C59.8962 53.7282 60.9553 53.8325 61.9179 54.2312C62.8805 54.6299 63.7032 55.3051 64.282 56.1714C64.8608 57.0377 65.1698 58.0561 65.1698 59.098C65.1682 60.4946 64.6128 61.8336 63.6252 62.8212C62.6376 63.8087 61.2986 64.3642 59.902 64.3657ZM59.902 55.3355C59.1579 55.3355 58.4304 55.5562 57.8117 55.9696C57.193 56.383 56.7107 56.9706 56.4259 57.6581C56.1412 58.3457 56.0666 59.1022 56.2118 59.832C56.357 60.5619 56.7153 61.2323 57.2415 61.7585C57.7677 62.2847 58.4381 62.643 59.168 62.7882C59.8979 62.9334 60.6544 62.8589 61.3419 62.5741C62.0294 62.2893 62.617 61.8071 63.0304 61.1883C63.4439 60.5696 63.6645 59.8421 63.6645 59.098C63.6633 58.1005 63.2665 57.1442 62.5612 56.4388C61.8558 55.7335 60.8995 55.3367 59.902 55.3355Z" fill="#141F38"/>
<path d="M52.4504 67.3005C52.3513 67.3005 52.2533 67.281 52.1618 67.243C52.0703 67.2051 51.9872 67.1494 51.9173 67.0792C49.8018 64.962 48.6135 62.0915 48.6135 59.0985C48.6135 56.1056 49.8018 53.235 51.9173 51.1178C52.0598 50.9848 52.2483 50.9122 52.4432 50.9153C52.6381 50.9183 52.8243 50.9969 52.9625 51.1343C53.1007 51.2718 53.1802 51.4575 53.1843 51.6524C53.1885 51.8473 53.1169 52.0362 52.9846 52.1794C52.0759 53.088 51.3551 54.1667 50.8633 55.3539C50.3715 56.5411 50.1184 57.8135 50.1184 59.0985C50.1184 60.3835 50.3715 61.656 50.8633 62.8432C51.3551 64.0304 52.0759 65.1091 52.9846 66.0177C53.0899 66.1229 53.1616 66.257 53.1906 66.4031C53.2196 66.5491 53.2046 66.7004 53.1476 66.838C53.0905 66.9755 52.9938 67.0929 52.8699 67.1755C52.746 67.258 52.6004 67.3019 52.4515 67.3016L52.4504 67.3005Z" fill="#141F38"/>
<path d="M67.3536 67.3005C67.2048 67.3008 67.0591 67.2569 66.9352 67.1744C66.8113 67.0918 66.7147 66.9744 66.6576 66.8369C66.6005 66.6993 66.5855 66.548 66.6146 66.402C66.6436 66.2559 66.7153 66.1218 66.8206 66.0166C67.7293 65.108 68.4501 64.0293 68.9419 62.8421C69.4337 61.6549 69.6868 60.3824 69.6868 59.0974C69.6868 57.8124 69.4337 56.54 68.9419 55.3528C68.4501 54.1656 67.7293 53.0869 66.8206 52.1783C66.6883 52.0351 66.6167 51.8462 66.6208 51.6513C66.625 51.4564 66.7045 51.2707 66.8427 51.1332C66.9809 50.9958 67.167 50.9172 67.362 50.9142C67.5569 50.9111 67.7454 50.9837 67.8879 51.1167C70.0034 53.2339 71.1917 56.1044 71.1917 59.0974C71.1917 62.0904 70.0034 64.9609 67.8879 67.0781C67.8179 67.1486 67.7347 67.2046 67.643 67.2428C67.5513 67.2809 67.453 67.3006 67.3536 67.3005Z" fill="#141F38"/>
</g>
<circle cx="59.5" cy="59.5" r="59" stroke="black" stroke-dasharray="20 20"/>
<defs>
<clipPath id="clip0_6_715">
<rect width="58.6959" height="58.6959" fill="white" transform="translate(30.554 29.75)"/>
</clipPath>
</defs>
</svg>
